<mxfile host="app.diagrams.net" modified="2022-02-18T01:19:31.467Z" agent="5.0 (Windows)" etag="K30TzbFzJMYTCEHz-svj" version="15.5.2" type="github">
  <diagram id="QiArXK7icgi0YTgHnrHz" name="Page-1">
    <mxGraphModel dx="1609" dy="1533" grid="1" gridSize="10" guides="1" tooltips="1" connect="1" arrows="1" fold="1" page="1" pageScale="1" pageWidth="827" pageHeight="1169" math="0" shadow="0">
      <root>
        <mxCell id="0" />
        <mxCell id="1" parent="0" />
        <mxCell id="gBG1kIDj81lgjupzQNNE-14" style="edgeStyle=orthogonalEdgeStyle;rounded=0;orthogonalLoop=1;jettySize=auto;html=1;entryX=0.5;entryY=1;entryDx=0;entryDy=0;" edge="1" parent="1" source="gBG1kIDj81lgjupzQNNE-1" target="gBG1kIDj81lgjupzQNNE-7">
          <mxGeometry relative="1" as="geometry" />
        </mxCell>
        <mxCell id="gBG1kIDj81lgjupzQNNE-15" style="edgeStyle=orthogonalEdgeStyle;rounded=0;orthogonalLoop=1;jettySize=auto;html=1;entryX=0.5;entryY=1;entryDx=0;entryDy=0;" edge="1" parent="1" source="gBG1kIDj81lgjupzQNNE-1" target="gBG1kIDj81lgjupzQNNE-2">
          <mxGeometry relative="1" as="geometry" />
        </mxCell>
        <mxCell id="gBG1kIDj81lgjupzQNNE-16" style="edgeStyle=orthogonalEdgeStyle;rounded=0;orthogonalLoop=1;jettySize=auto;html=1;entryX=0.5;entryY=0;entryDx=0;entryDy=0;" edge="1" parent="1" source="gBG1kIDj81lgjupzQNNE-1" target="gBG1kIDj81lgjupzQNNE-4">
          <mxGeometry relative="1" as="geometry">
            <Array as="points">
              <mxPoint x="375" y="255" />
              <mxPoint x="465" y="255" />
            </Array>
          </mxGeometry>
        </mxCell>
        <mxCell id="gBG1kIDj81lgjupzQNNE-17" style="edgeStyle=orthogonalEdgeStyle;rounded=0;orthogonalLoop=1;jettySize=auto;html=1;entryX=1;entryY=0.5;entryDx=0;entryDy=0;" edge="1" parent="1" source="gBG1kIDj81lgjupzQNNE-1" target="gBG1kIDj81lgjupzQNNE-6">
          <mxGeometry relative="1" as="geometry" />
        </mxCell>
        <mxCell id="gBG1kIDj81lgjupzQNNE-18" style="edgeStyle=orthogonalEdgeStyle;rounded=0;orthogonalLoop=1;jettySize=auto;html=1;entryX=0;entryY=0.5;entryDx=0;entryDy=0;" edge="1" parent="1" source="gBG1kIDj81lgjupzQNNE-1" target="gBG1kIDj81lgjupzQNNE-3">
          <mxGeometry relative="1" as="geometry" />
        </mxCell>
        <mxCell id="gBG1kIDj81lgjupzQNNE-19" style="edgeStyle=orthogonalEdgeStyle;rounded=0;orthogonalLoop=1;jettySize=auto;html=1;entryX=0.5;entryY=0;entryDx=0;entryDy=0;" edge="1" parent="1" source="gBG1kIDj81lgjupzQNNE-1" target="gBG1kIDj81lgjupzQNNE-5">
          <mxGeometry relative="1" as="geometry" />
        </mxCell>
        <mxCell id="gBG1kIDj81lgjupzQNNE-93" style="edgeStyle=orthogonalEdgeStyle;rounded=0;orthogonalLoop=1;jettySize=auto;html=1;" edge="1" parent="1" source="gBG1kIDj81lgjupzQNNE-1" target="gBG1kIDj81lgjupzQNNE-92">
          <mxGeometry relative="1" as="geometry">
            <Array as="points">
              <mxPoint x="375" y="240" />
              <mxPoint x="650" y="240" />
            </Array>
          </mxGeometry>
        </mxCell>
        <mxCell id="gBG1kIDj81lgjupzQNNE-1" value="" style="ellipse;whiteSpace=wrap;html=1;fillColor=#ffe6cc;strokeColor=#d79b00;" vertex="1" parent="1">
          <mxGeometry x="320" y="160" width="110" height="70" as="geometry" />
        </mxCell>
        <mxCell id="gBG1kIDj81lgjupzQNNE-2" value="" style="rounded=0;whiteSpace=wrap;html=1;fillColor=#fad7ac;strokeColor=#b46504;" vertex="1" parent="1">
          <mxGeometry x="240" y="60" width="120" height="60" as="geometry" />
        </mxCell>
        <mxCell id="gBG1kIDj81lgjupzQNNE-43" style="edgeStyle=orthogonalEdgeStyle;rounded=0;orthogonalLoop=1;jettySize=auto;html=1;entryX=0;entryY=0.5;entryDx=0;entryDy=0;" edge="1" parent="1" source="gBG1kIDj81lgjupzQNNE-3" target="gBG1kIDj81lgjupzQNNE-35">
          <mxGeometry relative="1" as="geometry" />
        </mxCell>
        <mxCell id="gBG1kIDj81lgjupzQNNE-3" value="" style="rounded=0;whiteSpace=wrap;html=1;fillColor=#fad7ac;strokeColor=#b46504;" vertex="1" parent="1">
          <mxGeometry x="530" y="165" width="120" height="60" as="geometry" />
        </mxCell>
        <mxCell id="gBG1kIDj81lgjupzQNNE-4" value="" style="rounded=0;whiteSpace=wrap;html=1;fillColor=#fad7ac;strokeColor=#b46504;" vertex="1" parent="1">
          <mxGeometry x="405" y="280" width="120" height="60" as="geometry" />
        </mxCell>
        <mxCell id="gBG1kIDj81lgjupzQNNE-5" value="" style="rounded=0;whiteSpace=wrap;html=1;fillColor=#fad7ac;strokeColor=#b46504;" vertex="1" parent="1">
          <mxGeometry x="180" y="280" width="160" height="60" as="geometry" />
        </mxCell>
        <mxCell id="gBG1kIDj81lgjupzQNNE-82" style="edgeStyle=orthogonalEdgeStyle;rounded=0;orthogonalLoop=1;jettySize=auto;html=1;" edge="1" parent="1" source="gBG1kIDj81lgjupzQNNE-6">
          <mxGeometry relative="1" as="geometry">
            <mxPoint y="273" as="targetPoint" />
            <Array as="points">
              <mxPoint x="50" y="195" />
              <mxPoint x="50" y="273" />
            </Array>
          </mxGeometry>
        </mxCell>
        <mxCell id="gBG1kIDj81lgjupzQNNE-83" style="edgeStyle=orthogonalEdgeStyle;rounded=0;orthogonalLoop=1;jettySize=auto;html=1;entryX=1;entryY=0.5;entryDx=0;entryDy=0;" edge="1" parent="1" source="gBG1kIDj81lgjupzQNNE-6" target="gBG1kIDj81lgjupzQNNE-59">
          <mxGeometry relative="1" as="geometry" />
        </mxCell>
        <mxCell id="gBG1kIDj81lgjupzQNNE-6" value="" style="rounded=0;whiteSpace=wrap;html=1;fillColor=#fad7ac;strokeColor=#b46504;" vertex="1" parent="1">
          <mxGeometry x="100" y="165" width="120" height="60" as="geometry" />
        </mxCell>
        <mxCell id="gBG1kIDj81lgjupzQNNE-28" style="edgeStyle=orthogonalEdgeStyle;rounded=0;orthogonalLoop=1;jettySize=auto;html=1;entryX=0.5;entryY=1;entryDx=0;entryDy=0;" edge="1" parent="1" source="gBG1kIDj81lgjupzQNNE-7" target="gBG1kIDj81lgjupzQNNE-24">
          <mxGeometry relative="1" as="geometry">
            <mxPoint x="640" y="10" as="targetPoint" />
            <Array as="points">
              <mxPoint x="460" y="40" />
              <mxPoint x="620" y="40" />
            </Array>
          </mxGeometry>
        </mxCell>
        <mxCell id="gBG1kIDj81lgjupzQNNE-7" value="" style="rounded=0;whiteSpace=wrap;html=1;fillColor=#fad7ac;strokeColor=#b46504;" vertex="1" parent="1">
          <mxGeometry x="400" y="60" width="120" height="60" as="geometry" />
        </mxCell>
        <mxCell id="gBG1kIDj81lgjupzQNNE-8" value="Direction Commerciale" style="text;html=1;strokeColor=none;fillColor=none;align=center;verticalAlign=middle;whiteSpace=wrap;rounded=0;" vertex="1" parent="1">
          <mxGeometry x="130" y="180" width="60" height="30" as="geometry" />
        </mxCell>
        <mxCell id="gBG1kIDj81lgjupzQNNE-79" style="edgeStyle=orthogonalEdgeStyle;rounded=0;orthogonalLoop=1;jettySize=auto;html=1;entryX=0.5;entryY=0;entryDx=0;entryDy=0;" edge="1" parent="1" target="gBG1kIDj81lgjupzQNNE-76">
          <mxGeometry relative="1" as="geometry">
            <mxPoint x="260" y="340" as="sourcePoint" />
          </mxGeometry>
        </mxCell>
        <mxCell id="gBG1kIDj81lgjupzQNNE-9" value="Comptabilité/Finances/Contrôle de gestion&lt;span style=&quot;white-space: pre&quot;&gt;	&lt;/span&gt;" style="text;html=1;strokeColor=none;fillColor=none;align=center;verticalAlign=middle;whiteSpace=wrap;rounded=0;" vertex="1" parent="1">
          <mxGeometry x="220" y="295" width="90" height="30" as="geometry" />
        </mxCell>
        <mxCell id="gBG1kIDj81lgjupzQNNE-55" style="edgeStyle=orthogonalEdgeStyle;rounded=0;orthogonalLoop=1;jettySize=auto;html=1;entryX=0.5;entryY=0;entryDx=0;entryDy=0;" edge="1" parent="1" target="gBG1kIDj81lgjupzQNNE-50">
          <mxGeometry relative="1" as="geometry">
            <mxPoint x="490" y="340" as="sourcePoint" />
          </mxGeometry>
        </mxCell>
        <mxCell id="gBG1kIDj81lgjupzQNNE-10" value="&amp;nbsp;Ressources &amp;amp; Humaines" style="text;html=1;strokeColor=none;fillColor=none;align=center;verticalAlign=middle;whiteSpace=wrap;rounded=0;" vertex="1" parent="1">
          <mxGeometry x="440" y="295" width="60" height="30" as="geometry" />
        </mxCell>
        <mxCell id="gBG1kIDj81lgjupzQNNE-11" value="Production" style="text;html=1;strokeColor=none;fillColor=none;align=center;verticalAlign=middle;whiteSpace=wrap;rounded=0;" vertex="1" parent="1">
          <mxGeometry x="560" y="180" width="60" height="30" as="geometry" />
        </mxCell>
        <mxCell id="gBG1kIDj81lgjupzQNNE-64" style="edgeStyle=orthogonalEdgeStyle;rounded=0;orthogonalLoop=1;jettySize=auto;html=1;entryX=0.5;entryY=1;entryDx=0;entryDy=0;" edge="1" parent="1" target="gBG1kIDj81lgjupzQNNE-58">
          <mxGeometry relative="1" as="geometry">
            <mxPoint x="300" y="60" as="sourcePoint" />
            <Array as="points">
              <mxPoint x="300" y="40" />
              <mxPoint x="190" y="40" />
            </Array>
          </mxGeometry>
        </mxCell>
        <mxCell id="gBG1kIDj81lgjupzQNNE-12" value="Achats" style="text;html=1;strokeColor=none;fillColor=none;align=center;verticalAlign=middle;whiteSpace=wrap;rounded=0;" vertex="1" parent="1">
          <mxGeometry x="270" y="75" width="60" height="30" as="geometry" />
        </mxCell>
        <mxCell id="gBG1kIDj81lgjupzQNNE-13" value="Informatique et Gestion de projet" style="text;html=1;strokeColor=none;fillColor=none;align=center;verticalAlign=middle;whiteSpace=wrap;rounded=0;" vertex="1" parent="1">
          <mxGeometry x="430" y="75" width="60" height="30" as="geometry" />
        </mxCell>
        <mxCell id="gBG1kIDj81lgjupzQNNE-94" style="edgeStyle=orthogonalEdgeStyle;rounded=0;orthogonalLoop=1;jettySize=auto;html=1;entryX=0;entryY=0.75;entryDx=0;entryDy=0;" edge="1" parent="1" target="gBG1kIDj81lgjupzQNNE-91">
          <mxGeometry relative="1" as="geometry">
            <mxPoint x="375" y="160" as="sourcePoint" />
            <Array as="points">
              <mxPoint x="375" y="140" />
              <mxPoint x="580" y="140" />
            </Array>
          </mxGeometry>
        </mxCell>
        <mxCell id="gBG1kIDj81lgjupzQNNE-20" value="K_ElectroniK" style="text;html=1;strokeColor=none;fillColor=none;align=center;verticalAlign=middle;whiteSpace=wrap;rounded=0;" vertex="1" parent="1">
          <mxGeometry x="345" y="180" width="60" height="30" as="geometry" />
        </mxCell>
        <mxCell id="gBG1kIDj81lgjupzQNNE-24" value="" style="rounded=0;whiteSpace=wrap;html=1;fillColor=#fff2cc;strokeColor=#d6b656;gradientColor=#ffd966;" vertex="1" parent="1">
          <mxGeometry x="550" y="-70" width="140" height="70" as="geometry" />
        </mxCell>
        <mxCell id="gBG1kIDj81lgjupzQNNE-32" value="&lt;div&gt;Environnements de développement&lt;/div&gt;&lt;div&gt;&lt;br&gt;&lt;/div&gt;" style="text;html=1;strokeColor=none;fillColor=none;align=center;verticalAlign=middle;whiteSpace=wrap;rounded=0;" vertex="1" parent="1">
          <mxGeometry x="590" y="-45" width="60" height="30" as="geometry" />
        </mxCell>
        <mxCell id="gBG1kIDj81lgjupzQNNE-35" value="" style="rounded=0;whiteSpace=wrap;html=1;fillColor=#fff2cc;strokeColor=#d6b656;gradientColor=#ffd966;" vertex="1" parent="1">
          <mxGeometry x="730" y="160" width="120" height="70" as="geometry" />
        </mxCell>
        <mxCell id="gBG1kIDj81lgjupzQNNE-36" value="" style="rounded=0;whiteSpace=wrap;html=1;fillColor=#fff2cc;strokeColor=#d6b656;gradientColor=#ffd966;" vertex="1" parent="1">
          <mxGeometry x="640" y="420" width="120" height="60" as="geometry" />
        </mxCell>
        <mxCell id="gBG1kIDj81lgjupzQNNE-40" value="&lt;div&gt;Outil sur mesure, développé en 2005&lt;/div&gt;&lt;div&gt;&lt;br&gt;&lt;/div&gt;" style="text;html=1;strokeColor=none;fillColor=none;align=center;verticalAlign=middle;whiteSpace=wrap;rounded=0;" vertex="1" parent="1">
          <mxGeometry x="750" y="190" width="90" height="20" as="geometry" />
        </mxCell>
        <mxCell id="gBG1kIDj81lgjupzQNNE-42" value="Excel" style="text;html=1;strokeColor=none;fillColor=none;align=center;verticalAlign=middle;whiteSpace=wrap;rounded=0;" vertex="1" parent="1">
          <mxGeometry x="670" y="435" width="60" height="30" as="geometry" />
        </mxCell>
        <mxCell id="gBG1kIDj81lgjupzQNNE-50" value="" style="rounded=0;whiteSpace=wrap;html=1;fillColor=#fff2cc;strokeColor=#d6b656;gradientColor=#ffd966;" vertex="1" parent="1">
          <mxGeometry x="460" y="420" width="120" height="60" as="geometry" />
        </mxCell>
        <mxCell id="gBG1kIDj81lgjupzQNNE-52" value="SmartRH" style="text;html=1;strokeColor=none;fillColor=none;align=center;verticalAlign=middle;whiteSpace=wrap;rounded=0;" vertex="1" parent="1">
          <mxGeometry x="490" y="435" width="60" height="30" as="geometry" />
        </mxCell>
        <mxCell id="gBG1kIDj81lgjupzQNNE-58" value="" style="rounded=0;whiteSpace=wrap;html=1;fillColor=#fff2cc;strokeColor=#d6b656;gradientColor=#ffd966;" vertex="1" parent="1">
          <mxGeometry x="100" y="-70" width="180" height="70" as="geometry" />
        </mxCell>
        <mxCell id="gBG1kIDj81lgjupzQNNE-59" value="" style="rounded=0;whiteSpace=wrap;html=1;fillColor=#fff2cc;strokeColor=#d6b656;gradientColor=#ffd966;" vertex="1" parent="1">
          <mxGeometry x="-170" y="75" width="170" height="60" as="geometry" />
        </mxCell>
        <mxCell id="gBG1kIDj81lgjupzQNNE-67" value="GestComs:outi créé sur mesure pour K-ElectroniK en 2012" style="text;html=1;strokeColor=none;fillColor=none;align=center;verticalAlign=middle;whiteSpace=wrap;rounded=0;" vertex="1" parent="1">
          <mxGeometry x="130" y="-50" width="130" height="30" as="geometry" />
        </mxCell>
        <mxCell id="gBG1kIDj81lgjupzQNNE-71" value="" style="rounded=0;whiteSpace=wrap;html=1;fillColor=#fff2cc;strokeColor=#d6b656;gradientColor=#ffd966;" vertex="1" parent="1">
          <mxGeometry x="-170" y="240" width="170" height="65" as="geometry" />
        </mxCell>
        <mxCell id="gBG1kIDj81lgjupzQNNE-73" value="&lt;div&gt;Prestashop, avec développements spécifiques pour les particuliers&lt;/div&gt;&lt;div&gt;&lt;br&gt;&lt;/div&gt;" style="text;html=1;strokeColor=none;fillColor=none;align=center;verticalAlign=middle;whiteSpace=wrap;rounded=0;" vertex="1" parent="1">
          <mxGeometry x="-165" y="265" width="160" height="20" as="geometry" />
        </mxCell>
        <mxCell id="gBG1kIDj81lgjupzQNNE-74" value="&lt;div&gt;FreshSales &lt;br&gt;&lt;/div&gt;&lt;div&gt;Modules de base, hors modules maketing&lt;/div&gt;" style="text;html=1;strokeColor=none;fillColor=none;align=center;verticalAlign=middle;whiteSpace=wrap;rounded=0;" vertex="1" parent="1">
          <mxGeometry x="-155" y="90" width="140" height="30" as="geometry" />
        </mxCell>
        <mxCell id="gBG1kIDj81lgjupzQNNE-76" value="" style="rounded=0;whiteSpace=wrap;html=1;fillColor=#fff2cc;strokeColor=#d6b656;gradientColor=#ffd966;" vertex="1" parent="1">
          <mxGeometry x="200" y="420" width="120" height="60" as="geometry" />
        </mxCell>
        <mxCell id="gBG1kIDj81lgjupzQNNE-77" value="Cegid" style="text;html=1;strokeColor=none;fillColor=none;align=center;verticalAlign=middle;whiteSpace=wrap;rounded=0;" vertex="1" parent="1">
          <mxGeometry x="230" y="435" width="60" height="30" as="geometry" />
        </mxCell>
        <mxCell id="gBG1kIDj81lgjupzQNNE-102" style="edgeStyle=orthogonalEdgeStyle;rounded=0;orthogonalLoop=1;jettySize=auto;html=1;entryX=0.5;entryY=1;entryDx=0;entryDy=0;" edge="1" parent="1" source="gBG1kIDj81lgjupzQNNE-91" target="gBG1kIDj81lgjupzQNNE-101">
          <mxGeometry relative="1" as="geometry" />
        </mxCell>
        <mxCell id="gBG1kIDj81lgjupzQNNE-91" value="" style="rounded=0;whiteSpace=wrap;html=1;fillColor=#fad7ac;strokeColor=#b46504;" vertex="1" parent="1">
          <mxGeometry x="630" y="75" width="120" height="60" as="geometry" />
        </mxCell>
        <mxCell id="gBG1kIDj81lgjupzQNNE-92" value="" style="rounded=0;whiteSpace=wrap;html=1;fillColor=#fad7ac;strokeColor=#b46504;" vertex="1" parent="1">
          <mxGeometry x="590" y="280" width="120" height="60" as="geometry" />
        </mxCell>
        <mxCell id="gBG1kIDj81lgjupzQNNE-95" value="Statistiques" style="text;html=1;strokeColor=none;fillColor=none;align=center;verticalAlign=middle;whiteSpace=wrap;rounded=0;" vertex="1" parent="1">
          <mxGeometry x="660" y="90" width="60" height="30" as="geometry" />
        </mxCell>
        <mxCell id="gBG1kIDj81lgjupzQNNE-99" style="edgeStyle=orthogonalEdgeStyle;rounded=0;orthogonalLoop=1;jettySize=auto;html=1;entryX=0.583;entryY=0;entryDx=0;entryDy=0;entryPerimeter=0;" edge="1" parent="1" source="gBG1kIDj81lgjupzQNNE-96" target="gBG1kIDj81lgjupzQNNE-36">
          <mxGeometry relative="1" as="geometry" />
        </mxCell>
        <mxCell id="gBG1kIDj81lgjupzQNNE-100" style="edgeStyle=orthogonalEdgeStyle;rounded=0;orthogonalLoop=1;jettySize=auto;html=1;" edge="1" parent="1" source="gBG1kIDj81lgjupzQNNE-96" target="gBG1kIDj81lgjupzQNNE-97">
          <mxGeometry relative="1" as="geometry">
            <Array as="points">
              <mxPoint x="650" y="360" />
              <mxPoint x="860" y="360" />
            </Array>
          </mxGeometry>
        </mxCell>
        <mxCell id="gBG1kIDj81lgjupzQNNE-96" value="&lt;div&gt;Marketing/&lt;/div&gt;&lt;div&gt;Communication&lt;/div&gt;&lt;div&gt;&lt;br&gt;&lt;/div&gt;" style="text;html=1;strokeColor=none;fillColor=none;align=center;verticalAlign=middle;whiteSpace=wrap;rounded=0;" vertex="1" parent="1">
          <mxGeometry x="600" y="295" width="100" height="35" as="geometry" />
        </mxCell>
        <mxCell id="gBG1kIDj81lgjupzQNNE-97" value="" style="rounded=0;whiteSpace=wrap;html=1;fillColor=#fff2cc;strokeColor=#d6b656;gradientColor=#ffd966;" vertex="1" parent="1">
          <mxGeometry x="800" y="420" width="140" height="60" as="geometry" />
        </mxCell>
        <mxCell id="gBG1kIDj81lgjupzQNNE-98" value="&lt;div&gt;Outils locaux sur les postes des commerciaux&lt;/div&gt;&lt;div&gt;&lt;br&gt;&lt;/div&gt;" style="text;html=1;strokeColor=none;fillColor=none;align=center;verticalAlign=middle;whiteSpace=wrap;rounded=0;" vertex="1" parent="1">
          <mxGeometry x="820" y="440" width="100" height="30" as="geometry" />
        </mxCell>
        <mxCell id="gBG1kIDj81lgjupzQNNE-101" value="" style="rounded=0;whiteSpace=wrap;html=1;fillColor=#fff2cc;strokeColor=#d6b656;gradientColor=#ffd966;" vertex="1" parent="1">
          <mxGeometry x="800" y="-15" width="120" height="60" as="geometry" />
        </mxCell>
        <mxCell id="gBG1kIDj81lgjupzQNNE-103" value="Excel" style="text;html=1;strokeColor=none;fillColor=none;align=center;verticalAlign=middle;whiteSpace=wrap;rounded=0;" vertex="1" parent="1">
          <mxGeometry x="830" width="60" height="30" as="geometry" />
        </mxCell>
      </root>
    </mxGraphModel>
  </diagram>
</mxfile>
